<svg t="1586687419004" class="icon" viewBox="0 0 1024 1024" version="1.1" xmlns="http://www.w3.org/2000/svg" p-id="2829" width="200" height="200"><path d="M512 85.333333c235.637333 0 426.666667 191.029333 426.666667 426.666667S747.637333 938.666667 512 938.666667 85.333333 747.637333 85.333333 512 276.362667 85.333333 512 85.333333z m0 234.666667a32 32 0 0 0-32 32v128H352a32 32 0 0 0 0 64h128v128a32 32 0 0 0 64 0V544h128a32 32 0 0 0 0-64H544V352a32 32 0 0 0-32-32z" p-id="2830" fill="#E73823"></path></svg>